<?xml version="1.0" encoding="UTF-8"?>
<svg id="Capa_2" data-name="Capa 2" xmlns="http://www.w3.org/2000/svg" viewBox="0 0 15.27 15.24">
  <defs>
    <style>
      .cls-1 {
        fill: #fff;
      }

      .cls-1, .cls-2 {
        stroke-width: 0px;
      }

      .cls-2 {
        fill: #020202;
      }
    </style>
  </defs>
  <circle class="cls-1" cx="7.44" cy="7.43" r="6.75"/>
  <path class="cls-2" d="m7.64,0C3.42,0,0,3.42,0,7.64s3.08,7.28,7.01,7.6c.03-1.66.05-3.16.06-4.13-.52-.26-.87-.67-1.1-1.14-.4-.87-.36-1.78-.26-2.71.08-.77.53-5.21.53-5.21,0-.08.16-.08.16,0l.04,5.22c0,.28.37.28.37,0l.33-5.22c0-.08.16-.08.16,0l.16,5.22c0,.14.09.21.19.21.09,0,.19-.07.19-.21l.16-5.22c0-.08.16-.08.16,0l.33,5.22c0,.28.37.28.37,0l.03-5.22c0-.08.16-.08.16,0,0,0,.44,4.45.53,5.21.1.93.14,1.84-.26,2.71-.22.48-.57.88-1.1,1.14.01.97.03,2.46.06,4.13,3.92-.32,7.01-3.6,7.01-7.6C15.27,3.42,11.85,0,7.64,0Z"/>
</svg>